<?xml version="1.0" standalone="no"?>
<!DOCTYPE svg PUBLIC "-//W3C//DTD SVG 20010904//EN"
 "http://www.w3.org/TR/2001/REC-SVG-20010904/DTD/svg10.dtd">
<svg version="1.0" xmlns="http://www.w3.org/2000/svg"
 width="390.000000pt" height="390.000000pt" viewBox="0 0 390.000000 390.000000"
 preserveAspectRatio="xMidYMid meet">
<metadata>
Created by potrace 1.11, written by Peter Selinger 2001-2013
</metadata>
<g transform="translate(0.000000,390.000000) scale(0.100000,-0.100000)"
fill="#000000" stroke="none">
<path d="M237 3611 c93 -115 159 -247 170 -339 18 -156 -120 -277 -354 -310
-49 -7 -73 -32 -30 -32 38 0 176 38 231 64 147 68 206 193 166 347 -26 99
-174 329 -212 329 -15 0 -9 -12 29 -59z"/>
<path d="M2427 3416 c-67 -24 -105 -73 -109 -140 -2 -26 -7 -35 -18 -32 -52
14 -74 15 -111 7 -26 -6 -51 -6 -66 0 -35 13 -88 -15 -124 -64 -36 -50 -36
-57 0 -81 24 -16 30 -29 33 -68 9 -86 81 -153 176 -165 40 -4 60 -1 103 19 74
34 112 89 113 162 l1 54 27 -14 c52 -27 109 -27 158 -2 48 25 90 78 90 112 -1
17 -3 15 -14 -9 -25 -56 -85 -95 -144 -95 -24 0 -23 2 14 19 111 51 126 207
25 275 -46 31 -105 40 -154 22z"/>
<path d="M2233 2775 c-106 -50 -113 -55 -113 -83 0 -21 -13 -44 -44 -79 -66
-73 -71 -103 -48 -305 15 -142 16 -168 4 -168 -10 0 -13 -10 -10 -37 3 -26 -9
-83 -37 -178 -23 -77 -47 -176 -53 -220 -30 -210 -114 -986 -108 -992 2 -2 50
0 107 4 l104 8 101 353 c56 194 104 355 107 359 4 3 17 -19 30 -48 64 -142
330 -705 337 -712 7 -7 209 37 236 52 8 4 -45 134 -158 386 l-169 380 -20 140
c-11 77 -22 181 -25 230 -3 76 -9 100 -37 157 l-33 67 95 3 95 3 68 135 68
135 0 98 0 97 -59 119 c-33 65 -67 121 -76 125 -9 3 -64 6 -121 6 -63 0 -104
4 -104 10 0 18 -23 10 -137 -45z m101 -66 c44 -35 47 -55 32 -247 -8 -97 -20
-267 -27 -377 -11 -184 -13 -201 -33 -217 -18 -15 -19 -20 -8 -35 33 -47 37
-64 21 -91 -12 -21 -23 -28 -56 -30 -59 -4 -74 20 -66 104 5 58 4 64 -13 64
-18 0 -19 12 -14 396 l5 396 33 29 c40 35 87 38 126 8z"/>
<path d="M828 2306 c-459 -43 -437 -43 -770 -9 l-58 6 0 -335 c0 -400 -11
-368 132 -368 l96 0 71 126 71 126 -25 32 c-38 50 -34 105 9 151 32 33 39 36
83 34 27 -1 55 1 61 5 21 13 34 -5 128 -173 49 -88 92 -161 95 -161 3 0 36 45
74 100 41 60 75 100 83 98 8 -2 65 -77 126 -168 l111 -165 68 -3 c37 -2 67 -7
67 -12 0 -6 -228 -10 -607 -10 -550 0 -608 2 -625 17 -17 15 -18 13 -18 -60
l0 -75 83 -68 c168 -140 327 -283 497 -451 l175 -173 -377 0 -378 0 0 -60 0
-60 628 -3 627 -2 -627 -3 -628 -2 0 -95 0 -95 530 0 c292 0 530 1 530 3 0 2
-56 39 -126 82 -69 43 -127 82 -130 86 -4 7 6 7 86 -7 72 -12 166 -85 185
-143 6 -18 14 -21 68 -21 34 0 92 -3 130 -7 l67 -6 0 925 c0 907 0 926 -20
950 -11 14 -30 27 -42 30 -13 2 -215 -14 -450 -36z m422 -846 c0 -6 -182 -11
-510 -12 l-511 -3 58 -48 c115 -97 400 -370 513 -491 99 -107 119 -125 146
-125 29 -1 32 2 38 37 3 20 6 60 6 88 0 48 -2 52 -31 65 -36 14 -64 68 -53
102 12 42 45 67 86 67 85 0 122 -100 57 -154 -17 -14 -35 -26 -40 -26 -6 0 -9
-36 -7 -87 l3 -88 75 0 75 0 3 53 c3 48 0 56 -27 81 -37 35 -39 54 -6 86 30
31 49 31 79 2 29 -29 25 -71 -10 -94 -21 -13 -24 -23 -24 -74 l0 -58 43 -4
c23 -2 -35 -4 -129 -5 l-171 -2 -259 258 c-143 141 -305 295 -361 342 -56 47
-102 88 -102 93 -1 4 237 7 529 7 343 0 530 -3 530 -10z"/>
<path d="M0 1105 l0 -325 355 0 c200 0 355 4 355 9 0 28 -673 641 -704 641 -3
0 -6 -146 -6 -325z"/>
<path d="M2705 589 c-92 -34 -125 -64 -125 -115 0 -26 4 -34 18 -34 14 0 240
77 250 85 8 6 -39 95 -50 94 -7 0 -49 -13 -93 -30z"/>
<path d="M1795 526 c-30 -13 -65 -54 -65 -76 0 -6 49 -10 135 -10 l135 0 0 50
0 50 -87 0 c-50 -1 -101 -6 -118 -14z"/>
</g>
</svg>
